<?xml version="1.0" encoding="UTF-8"?>
<svg id="Camada_2" xmlns="http://www.w3.org/2000/svg" version="1.1" viewBox="0 0 90 47">
  <!-- Generator: Adobe Illustrator 30.0.0, SVG Export Plug-In . SVG Version: 2.1.1 Build 123)  -->
  <defs>
    <style>
      .st0 {
        fill: #fff200;
      }
    </style>
  </defs>
  <g id="Camada_1-2">
    <g>
      <path class="st0" d="M35.7,38.3c.3-.7.8-1.4.9-2.1.2-1.3,0-2.7,0-4.1s-.7-1.8-1.7-1.9c-1,0-1.7.7-1.7,1.8v3c0,1-.6,1.8-1.6,1.8s-1.7-.7-1.7-1.8v-3.3c0-.9-.7-1.6-1.6-1.6s-1.8.7-1.8,1.9v13.1c0,1,.7,1.8,1.7,1.8s1.7-.8,1.7-1.8v-3.1c0-1,.7-1.7,1.6-1.8,1,0,1.6.7,1.6,1.7v3.2c0,1,.8,1.8,1.7,1.7.9,0,1.6-.8,1.6-1.8v-3c0-1.2-.3-2.3-1-3.3v-.6h0l.2.2Z"/>
      <path class="st0" d="M53.3,18.3c0,.7.2,1.3.8,1.6,1.2.7,2.6-.2,2.6-1.7V5.2C56.7,2.2,54.5,0,51.5,0h-12.9C37.4,0,36.7.7,36.7,1.7s.7,1.7,1.8,1.7h12.7c1.5,0,2.1.6,2.1,2.1v12.8h0Z"/>
      <path class="st0" d="M89.9,34.2c-.4-2.6-2.8-4.2-5.5-4-2.4.2-4.4,2.3-4.4,4.9v6.9c0,2.8,2.4,5,5.1,4.9,2.8,0,4.9-2.3,4.9-5.2v-4c0-1.2,0-2.4,0-3.6h0ZM86.6,41.8c0,1-.5,1.6-1.3,1.8-.7.2-1.4-.2-1.7-.9,0-.3-.2-.7-.2-1v-6.3c0-1.1.7-1.8,1.6-1.8s1.6.7,1.7,1.8v6.4h0Z"/>
      <path class="st0" d="M21.5,30.2c-.9,0-1.5.8-1.5,1.8v9.7c0,.4-.1.8-.3,1.2-.4.6-1.1.8-1.7.6-.8-.2-1.2-.8-1.2-1.6v-9.8c0-1.2-.7-1.9-1.7-1.9s-1.7.8-1.7,1.9v9.8c0,.6.1,1.1.3,1.7.8,2.4,3,3.7,5.6,3.3,2.2-.3,4.1-2.3,4.2-4.7v-10.3c0-1.1-.9-1.8-1.9-1.6h-.1Z"/>
      <path class="st0" d="M49.3,30.5c-.5-.4-1.1-.4-1.7-.2-.7.3-1,.9-1,1.6v10.5c-.2.9-1.2,1.4-2.1,1.1-.8-.3-1.1-.8-1.1-1.9v-9.2c0-.4,0-.8-.2-1.1-.3-.8-1.1-1.1-1.9-1-.7.1-1.3.8-1.3,1.6v5.3h0v4.7c0,.7.2,1.5.4,2.2.9,2.2,3.2,3.3,5.6,2.9,2.2-.4,3.9-2.4,4-4.8v-10.1c0-3.3-.2-1.1-.7-1.4h0v-.2Z"/>
      <path class="st0" d="M71.9,36.9c-.6,0-1.1,0-1.5-.6s-.5-1.1-.3-1.8c.3-.7.9-1,1.6-1h3.3c1,0,1.7-.7,1.7-1.6s-.6-1.7-1.7-1.7h-3.5c-1.8,0-3.1.9-4.1,2.3-2.1,3.3,0,7.4,4,7.8.3,0,.6,0,.8,0,.8.3,1.1,1,.9,1.9,0,.7-.8,1.3-1.6,1.3h-3.3c-.3,0-.6,0-.9.2-.7.3-1,1.1-.8,1.9.2.8.8,1.3,1.7,1.3h3.4c3.2,0,5.5-3.1,4.8-6.2-.5-2.2-2.4-3.8-4.7-3.9h.2Z"/>
      <path class="st0" d="M58.6,36.9c-.4,0-.9,0-1.2-.3-.6-.3-.8-1.1-.6-1.8s.8-1.1,1.7-1.2h3.3c.9,0,1.6-.7,1.6-1.6s-.6-1.6-1.6-1.7h-3.8c-3,.2-5.2,3-4.6,6,.5,2.3,2.3,3.9,4.8,4,.3,0,.5,0,.8,0,.7.3,1.1,1,1,1.8-.2.8-.8,1.3-1.6,1.3h-3.4c-1.2,0-1.2.3-1.5,1-.5,1.2.3,2.4,1.6,2.4h3.4c1.3,0,2.4-.5,3.3-1.4,1.5-1.5,2-3.4,1.2-5.4s-2.3-3.1-4.5-3.3h0Z"/>
      <path class="st0" d="M49.1,23.3c.7-.3,1-1.1.8-1.9-.2-.7-.8-1.2-1.6-1.2h-9.7c-1.3,0-2-.6-2-2v-9.7c0-.6-.2-1.1-.7-1.5s-1.1-.4-1.7-.2c-.7.3-1,.9-1,1.7v9.7c0,3,2.1,5.1,5.1,5.2h9.7c.3,0,.7,0,1-.2h.1Z"/>
      <path class="st0" d="M8.4,43.6h-2.9c-1.5,0-2.1-.6-2.1-2v-9.4c0-1.2-.7-1.9-1.7-1.9S0,31,0,32.2v5h0v5.1c0,1.9,1,3.4,2.8,4.2,1.9,1,4,.6,6,.5.9,0,1.3-.9,1.2-1.9,0-.8-.8-1.4-1.6-1.4h0Z"/>
      <path class="st0" d="M43.4,11.5v-3.1c0-1-.8-1.6-1.7-1.6s-1.6.7-1.6,1.6v1.9h0v1.8c0,2.1,1.6,4.1,3.8,4.5,1.5.2,3,.2,4.5.2s1.8-.7,1.8-1.8-.7-1.6-1.8-1.6h-2.9c-1,0-1.9-.6-1.9-1.9h-.2Z"/>
      <path class="st0" d="M47.5,10c.8-.3,1.5-.7,2.2-1.1.4-.2.4-.7,0-1-.7-.4-1.5-.8-2.2-1.1-.5-.2-.8,0-.8.6v2.2c0,.5.4.8.8.6v-.2Z"/>
    </g>
  </g>
</svg>