<?xml version="1.0" encoding="UTF-8"?>
<svg id="Camada_2" xmlns="http://www.w3.org/2000/svg" version="1.1" viewBox="0 0 46.8 47">
  <!-- Generator: Adobe Illustrator 30.0.0, SVG Export Plug-In . SVG Version: 2.1.1 Build 123)  -->
  <defs>
    <style>
      .st0 {
        fill: #fff200;
      }
    </style>
  </defs>
  <g id="Camada_2-2">
    <g id="Camada_1-2">
      <g>
        <path class="st0" d="M40,36.5c0,1.4.4,2.5,1.7,3.3,2.4,1.5,5.1-.3,5.1-3.4V10.4C46.8,4.4,42.4,0,36.3,0H10.5C8.3,0,6.8,1.3,6.8,3.3s1.4,3.5,3.7,3.5h25.4c3.1,0,4.2,1.2,4.2,4.2v25.5h-.1Z"/>
        <path class="st0" d="M31.6,46.5c1.4-.7,2-2.3,1.7-3.9-.3-1.4-1.7-2.5-3.3-2.5H10.7c-2.7,0-3.9-1.3-3.9-3.9v-19.3c0-1.2-.4-2.2-1.4-2.9-1.1-.8-2.3-.9-3.4-.3-1.5.7-2,2-2,3.5v19.4c0,5.9,4.3,10.3,10.2,10.4h19.4c.7,0,1.4,0,2-.4h0Z"/>
        <path class="st0" d="M20.1,22.9v-6.2c0-2-1.5-3.3-3.4-3.2-1.9,0-3.2,1.4-3.3,3.3v3.9h0v3.6c.2,4.3,3.3,8.2,7.5,9,2.9.5,5.9.4,8.9.4s3.5-1.4,3.5-3.5-1.4-3.3-3.6-3.3h-5.8c-1.9,0-3.8-1.3-3.9-3.9h0Z"/>
        <path class="st0" d="M28.4,20c1.5-.7,3-1.4,4.5-2.3.9-.5.9-1.5,0-2-1.4-.8-2.9-1.6-4.5-2.3-.9-.4-1.6.1-1.7,1.1v4.2c0,1,.7,1.5,1.7,1.1v.2Z"/>
      </g>
    </g>
  </g>
</svg>